<?xml version="1.0" encoding="utf-8"?>
<!-- Generator: Adobe Illustrator 19.0.0, SVG Export Plug-In . SVG Version: 6.00 Build 0)  -->
<svg version="1.1" id="Layer_1" xmlns="http://www.w3.org/2000/svg" xmlns:xlink="http://www.w3.org/1999/xlink" x="0px" y="0px"
	 viewBox="219 -218.2 501.2 501.2" style="enable-background:new 219 -218.2 501.2 501.2;" xml:space="preserve">
<path class="bio-icon-svg" d="M701.1-79.4l-203.4-87.2c-17.9-7.7-38.4-7.7-56.3,0L238.1-79.4c-11.8,5-19.1,16.1-19.1,29
	c0,12.8,7.3,23.9,19.1,28.9l24,10.3c0,0.2,0,0.5,0,0.8v113.7c-9.3,3.1-16,11.9-16,22.3c0,6,2.3,11.5,6,15.6c-4.1,4-6.8,9.5-7.4,15.6
	l-5.8,63.3c-0.4,4.3,1.1,8.6,4,11.9s7.1,5,11.4,5h30.5c4.3,0,8.5-1.8,11.4-5c2.9-3.2,4.4-7.5,4-11.9l-5.8-63.3
	c-0.6-6.2-3.3-11.6-7.4-15.6c3.7-4.2,6-9.6,6-15.6c0-10.3-6.7-19.1-16-22.3V-4.7l41,17.6c0,0.2,0,0.5,0,0.8v57.3
	c0,23.9,16.4,46,46.1,62.3c28.3,15.5,65.7,24,105.4,24s77.1-8.5,105.4-24c29.7-16.2,46.1-38.4,46.1-62.3V13.6c0-0.3,0-0.5,0-0.8
	l80-34.3c11.8-5,19.1-16.1,19.1-29C720.2-63.2,712.9-74.3,701.1-79.4L701.1-79.4z"/>
<path class="bio-icon-svg" d="M525.6,118.9c0.6,0,1.1-0.1,1.7-0.2c5.7-1.3,11.2-2.8,16.6-4.5c3.9-1.2,6.1-5.5,4.9-9.4s-5.5-6.1-9.4-4.9
	c-5,1.6-10.1,3-15.4,4.2c-4,0.9-6.6,5-5.6,9C519.1,116.6,522.2,118.9,525.6,118.9L525.6,118.9z"/>
</svg>
