<?xml version="1.0" encoding="utf-8"?>
<!-- Generator: Adobe Illustrator 19.0.0, SVG Export Plug-In . SVG Version: 6.00 Build 0)  -->
<svg version="1.1" id="Layer_1" xmlns="http://www.w3.org/2000/svg" xmlns:xlink="http://www.w3.org/1999/xlink" x="0px" y="0px"
	 viewBox="0 0 50 50" style="enable-background:new 0 0 50 50;" xml:space="preserve">
<style type="text/css">
	.st0{display:none;fill:#262262;}
	.st1{fill:#FFFFFF;}
	.st2{display:none;}
	.st3{display:inline;fill:none;stroke:#FFFFFF;stroke-width:3;stroke-linejoin:round;stroke-miterlimit:10;}
	.st4{fill:#FFFFFF;stroke:#FFFFFF;stroke-width:3;stroke-linejoin:round;stroke-miterlimit:10;}
</style>
<rect id="XMLID_2_" x="-16" y="-8.5" class="st0" width="77.7" height="64"/>
<g id="XMLID_1_">
	<path id="XMLID_33_" class="st1" d="M25,4c11.6,0,21,9.4,21,21s-9.4,21-21,21S4,36.6,4,25S13.4,4,25,4 M25,0C11.2,0,0,11.2,0,25
		s11.2,25,25,25s25-11.2,25-25S38.8,0,25,0L25,0z"/>
</g>
<g id="XMLID_4_" class="st2">
	<path id="XMLID_5_" class="st3" d="M25,37.5c-2.1-2.6-5.4-5.2-7.5-7.8c1.1,0,3.1,0,4.2,0c0-5.7,0-11.4,0-17.2c1.1,0,2.2,0,3.3,0
		l0,0c1.1,0,2.2,0,3.3,0c0,5.7,0,11.4,0,17.2c1.1,0,3.1,0,4.2,0C30.4,32.3,27.1,34.9,25,37.5L25,37.5z"/>
</g>
<polygon id="XMLID_14_" class="st4" points="25,39 35.2,28.8 29.7,28.8 29.7,12.5 25,12.5 20.3,12.5 20.3,28.8 14.8,28.8 "/>
</svg>
