<?xml version="1.0" encoding="utf-8"?>
<!-- Generator: Adobe Illustrator 19.0.0, SVG Export Plug-In . SVG Version: 6.00 Build 0)  -->
<svg version="1.1" id="Capa_1" xmlns="http://www.w3.org/2000/svg" xmlns:xlink="http://www.w3.org/1999/xlink" x="0px" y="0px"
	 viewBox="205 -205.6 474.6 474.6" style="enable-background:new 205 -205.6 474.6 474.6;" xml:space="preserve">

<path class="bio-icon-svg" d="M255.6,93c2.2,7.9,3.5,25,3.5,51.4c0,22.6,1.2,39.2,3.6,49.7c2.4,10.5,7.2,19.4,14.3,26.5
	c7.1,7.1,15.8,12.3,26.1,15.4c10.3,3.1,25.2,4.6,44.5,4.6h11.4V189c-15.4,0-25.4-1-30-2.9c-4.6-2-8.1-4.7-10.3-8.5
	c-2.2-3.7-3.4-10.3-3.4-19.7c0-6.7-0.6-21.8-1.7-45.7c-0.9-15.6-2.7-28-5.6-37.3c-2.8-9.4-7-17.3-12.4-23.8
	c-5.4-6.6-12.2-12.2-20.7-17c9.6-6.2,16.6-12.1,21.3-17.9c4.6-5.7,8.5-12.9,11.5-21.7c3-8.8,4.8-20.3,5.6-34.5
	c1.3-25.1,2-42.2,2-51.2c0-8.8,1.1-15.1,3.2-18.8c2.2-3.6,5.5-6.3,10-8.2c4.5-1.8,14.7-2.7,30.6-2.7V-172h-11.4
	c-18.8,0-32.5,1.3-41.2,3.9c-12.9,3.9-22.7,9.1-29.5,15.7c-6.7,6.7-11.4,15.5-14,26.4C260.3-115,259-95.7,259-68
	c0,17.1-0.6,29-1.8,35.8c-1.4,9.1-4.1,16.7-7.9,22.8c-3.9,6.1-8.4,10.4-13.7,13c-5.2,2.5-13.1,4.1-23.6,4.8V60
	c13.2,0.7,22.9,3.5,29.3,8.5C247.7,73.4,252.5,81.5,255.6,93z"/>
<path class="bio-icon-svg" d="M579,236.6c13-3.9,22.9-9.1,29.7-15.8c6.7-6.6,11.4-15.5,13.8-26.5c2.4-11,3.8-30.4,3.8-58.2
	c0-16.9,0.6-28.8,1.8-35.7c1.5-9.1,4.2-16.7,8.1-22.8c3.8-6.1,8.3-10.5,13.6-13c5.3-2.5,13.1-4.1,23.6-4.7h-0.1V8.5
	c-13.2-0.8-22.9-3.6-29.4-8.5c-6.4-4.9-11.1-13.1-14.3-24.5c-2.2-8-3.2-25.1-3.2-51.2c0-22.6-1.2-39.1-3.7-49.6
	c-2.5-10.6-7.2-19.4-14.2-26.7c-7-7.2-15.7-12.2-26-15.3c-10.4-3-25.2-4.5-44.5-4.5h-11.4v51.2c16.2,0,26.6,1,31.2,2.9
	c4.7,1.9,7.9,4.6,9.7,8.2c1.8,3.6,2.7,10.7,2.8,21.5c0.8,34.1,2.1,56.1,3.6,66.1c2.4,14.5,7,26.6,13.7,35.9
	c4.9,6.7,12.6,13.3,23.2,20.2c-8.2,4.7-14.8,10.2-20,16.4c-5.3,6.2-9.4,13.8-12.5,22.7c-3.1,9-5.1,21-5.8,35.8
	c-1.2,24.6-1.9,41.4-1.9,50c-0.1,8.7-1.2,14.9-3.4,18.6c-2.3,3.7-5.7,6.4-10.4,8.4c-4.7,1.9-14.8,2.8-30.2,2.8v51.5h11.5
	C556.5,240.5,570.3,239.1,579,236.6z"/>
</svg>
