<?xml version="1.0" encoding="utf-8"?>
<!-- Generator: Adobe Illustrator 19.0.0, SVG Export Plug-In . SVG Version: 6.00 Build 0)  -->
<svg version="1.1" id="Layer_1" xmlns="http://www.w3.org/2000/svg" xmlns:xlink="http://www.w3.org/1999/xlink" x="0px" y="0px"
	 viewBox="-3 4.8 22.2 22.2" style="enable-background:new -3 4.8 22.2 22.2;" xml:space="preserve">
<style type="text/css">
	.st0{fill:#D83A3A;}
	.st1{fill:none;stroke:#FFFFFF;stroke-width:1.5;stroke-linecap:round;stroke-miterlimit:10;}
	.st2{fill:none;stroke:#FFFFFF;stroke-width:1.5;stroke-linecap:round;stroke-linejoin:round;stroke-miterlimit:10;}
	.st3{fill:url(#SVGID_1_);}
</style>
<!-- <rect x="-3" y="4.8" class="st0" width="22.2" height="22.2"/> -->
<g id="XMLID_27_">
</g>
<g id="XMLID_35_">
	<line id="XMLID_28_" class="st1" x1="7.8" y1="18.6" x2="8.8" y2="13.1"/>
	<path id="XMLID_33_" class="st2" d="M5.3,13.9c-0.6,0.6-1.3,1.3-1.9,1.9l1.9,1.7"/>
	<path id="XMLID_34_" class="st2" d="M10.9,17.6c0.6-0.6,1.3-1.3,1.9-1.9L10.9,14"/>
</g>
<linearGradient id="SVGID_1_" gradientUnits="userSpaceOnUse" x1="-15.8" y1="33.5" x2="32.1498" y2="33.5" gradientTransform="matrix(1 0 0 -1 0 33.6)">
	<stop  offset="0" style="stop-color:#FFFFFF;stop-opacity:0"/>
	<stop  offset="1" style="stop-color:#FFFFFF"/>
</linearGradient>
<path class="st3" d="M30.6,1.7h-44.8c-0.9,0-1.6-0.7-1.6-1.6l0,0c0-0.9,0.7-1.6,1.6-1.6h44.8c0.9,0,1.6,0.7,1.6,1.6l0,0
	C32.2,1,31.5,1.7,30.6,1.7z"/>
<g>
	<g>
		
			<image style="overflow:visible;" width="21.5" height="21.5" xlink:href="../assets/images/portfolio/4DF1F072E09C80BB.png"  transform="matrix(1 0 0 1 -2.675 5.1255)"/>
	</g>
</g>
</svg>
