<?xml version="1.0" encoding="utf-8"?>
<!-- Generator: Adobe Illustrator 19.0.0, SVG Export Plug-In . SVG Version: 6.00 Build 0)  -->
<svg version="1.1" id="Capa_1" xmlns="http://www.w3.org/2000/svg" xmlns:xlink="http://www.w3.org/1999/xlink" x="0px" y="0px"
	 viewBox="4 -3.7 71.7 71.7" style="enable-background:new 4 -3.7 71.7 71.7;" xml:space="preserve">
<path class="bio-icon-svg" d="M77.8,62.5c-0.8-1.7,0-1.3-1.7-1.7c-7.1-2.9-13.4-4.2-20.5-6.7c-0.4-0.4-2.5-1.7-2.5-5c0-1.3-0.4-2.1-2.1-2.1
	c-0.4,0-0.4,0-0.4-1.3c-0.4-3.3-0.4-5-0.4-5.4c0-0.4,0.4-0.8,0.8-1.3c2.5-3.3,2.9-7.5,3.3-9.6c0,0,0.4,0.4,0.8-0.8
	c0.4-1.7,0.8-2.1,1.3-3.8c0.4-1.3,0.8-4.2-0.8-4.2c-0.8,0.4-0.8,0-0.8-1.3v-9.2C54.4,6.9,52.7,4.8,51,4c-2.1-1.7-2.9-2.1-4.2-2.9
	c-0.8-0.8-0.8-1.7,0-2.9c0.4-0.4,1.3-0.8,1.7-1.3h-0.4c-0.4,0-5.9,0.8-7.9,1.3C36-1,32.2,0.2,28.9,3.2c-2.1,1.7-4.2,4.2-4.2,7.1
	c0,1.7,0,6.7,0,9.2c0,0.8,0,1.3-0.8,0.8c-2.1-0.4-0.8,3.3-0.8,3.8c0.4,1.7,0.8,2.5,1.3,4.2c0.4,1.3,0.8,0.8,0.8,0.8
	c0.4,2.5,1.7,7.1,3.3,9.6c0.4,0.4,0.4,0.8,0.4,1.3c-0.4,1.7-0.4,3.8-0.4,5.4c0,0.4-0.4,0.8-0.8,0.8c-1.7,0-1.7,1.3-1.7,2.1
	c0,2.5-1.7,4.6-2.5,5c-3.3,2.5-15.9,6.3-20.1,7.5c-2.9,0.8-3.3,1.7-4.2,2.9l-2.1,4.6c15.9,0,69.4,0,80.7,0V62.5z"/>
</svg>
