<?xml version="1.0" encoding="utf-8"?>
<!-- Generator: Adobe Illustrator 19.0.0, SVG Export Plug-In . SVG Version: 6.00 Build 0)  -->
<svg version="1.1" id="Layer_1" xmlns="http://www.w3.org/2000/svg" xmlns:xlink="http://www.w3.org/1999/xlink" x="0px" y="0px"
	 viewBox="10 -10 50 50" style="enable-background:new 10 -10 50 50;" xml:space="preserve">
<style type="text/css">
	.st0{display:none;fill:#262262;}
	.st1{fill:#51D4FF;}
	.st2{display:none;}
	.st3{display:inline;fill:none;stroke:#51D4FF;stroke-width:3;stroke-linejoin:round;stroke-miterlimit:10;}
	.st4{display:none;fill:#FFFFFF;stroke:#FFFFFF;stroke-width:3;stroke-linecap:round;stroke-linejoin:round;stroke-miterlimit:10;}
	.st5{display:none;fill:none;stroke:#FFFFFF;stroke-width:4;stroke-linecap:round;stroke-linejoin:round;stroke-miterlimit:10;}
	.st6{display:inline;fill:#00B226;}
	.st7{fill:none;stroke:#FFFFFF;stroke-width:4;stroke-linecap:round;stroke-linejoin:round;stroke-miterlimit:10;}
</style>
<rect id="XMLID_2_" x="-3.8" y="-17" class="st0" width="77.7" height="64"/>
<g id="XMLID_1_">
	<path id="XMLID_33_" class="st1" d="M35-6c11.6,0,21,9.4,21,21s-9.4,21-21,21s-21-9.4-21-21S23.4-6,35-6 M35-10
		C21.2-10,10,1.2,10,15s11.2,25,25,25s25-11.2,25-25S48.8-10,35-10L35-10z"/>
</g>
<g id="XMLID_4_" class="st2">
	<path id="XMLID_5_" class="st3" d="M45,17.5c-2.1-2.6-5.4-5.2-7.5-7.8c1.1,0,3.1,0,4.2,0c0-5.7,0-11.4,0-17.2c1.1,0,2.2,0,3.3,0
		l0,0c1.1,0,2.2,0,3.3,0c0,5.7,0,11.4,0,17.2c1.1,0,3.1,0,4.2,0C50.4,12.3,47.1,14.9,45,17.5L45,17.5z"/>
</g>
<polygon id="XMLID_14_" class="st4" points="45,19 55.2,8.8 49.7,8.8 49.7,-7.5 45,-7.5 40.3,-7.5 40.3,8.8 34.8,8.8 "/>
<polygon id="XMLID_3_" class="st4" points="35,26.4 43.2,18.2 38.8,18.2 38.8,5.1 35,5.1 31.2,5.1 31.2,18.2 26.8,18.2 "/>
<line class="st5" x1="-9.5" y1="12.3" x2="77.6" y2="12.3"/>
<line class="st5" x1="35" y1="-26.2" x2="35" y2="45.4"/>
<g class="st2">
	<path class="st6" d="M34.4,10.2v10.7H24.2V10.2H34.4 M35.4,9.2H23.2v12.7h12.2V9.2L35.4,9.2z"/>
</g>
<g class="st2">
	<path class="st6" d="M46.7,10.2v10.7H36.5V10.2H46.7 M47.7,9.2H35.5v12.7h12.2V9.2L47.7,9.2z"/>
</g>
<polyline class="st7" points="22.8,12.3 35,21.9 47.2,12.3 "/>
</svg>
