<?xml version="1.0" encoding="utf-8"?>
<!-- Generator: Adobe Illustrator 19.0.0, SVG Export Plug-In . SVG Version: 6.00 Build 0)  -->
<svg version="1.1" id="Capa_1" xmlns="http://www.w3.org/2000/svg" xmlns:xlink="http://www.w3.org/1999/xlink" x="0px" y="0px"
	 viewBox="174 -175 413 413" style="enable-background:new 174 -175 413 413;" xml:space="preserve">
<path class="bio-icon-svg" d="M567-146.7H194c-11,0-20,9-20,20v234c0,11,9,20,20,20h139.5v45.3h-54.3c-10.2,0-18.5,8.3-18.5,18.5
	s8.3,18.5,18.5,18.5h202.6c10.2,0,18.5-8.3,18.5-18.5s-8.3-18.5-18.5-18.5h-54.3v-45.3H567c11,0,20-9,20-20v-234
	C587-137.7,578-146.7,567-146.7z"/>
<path d="M268.6,1.6L331.7,31c1.6,0.8,3.4,1.1,5.2,1.1c2.3,0,4.6-0.7,6.6-1.9c3.5-2.3,5.7-6.1,5.7-10.3v-0.3c0-4.8-2.8-9.1-7.1-11.1
	L302.5-9.9L342-28.2c4.3-2,7.1-6.4,7.1-11.1v-0.3c0-4.2-2.1-8.1-5.7-10.3c-2-1.3-4.2-1.9-6.6-1.9c-1.8,0-3.6,0.4-5.2,1.1l-63.1,29.3
	c-4.3,2-7.1,6.4-7.1,11.1v0.9C261.5-4.7,264.3-0.4,268.6,1.6z"/>
<path d="M349.7,61.4c2.3,3.1,6,5,9.9,5h0.3c5.4,0,10-3.4,11.7-8.5l41.6-128.8c1.2-3.7,0.5-7.8-1.8-11c-2.3-3.1-6-5-9.9-5h-0.3
	c-5.4,0-10,3.4-11.7,8.5L347.9,50.4C346.7,54.1,347.4,58.2,349.7,61.4z"/>
<path d="M411.9-39.4c0,4.7,2.8,9.1,7.1,11.1l39.5,18.3L419,8.4c-4.3,2-7.1,6.4-7.1,11.1v0.3c0,4.2,2.1,8.1,5.7,10.3
	c2,1.3,4.3,1.9,6.6,1.9c1.8,0,3.5-0.4,5.2-1.1l63.1-29.3c4.3-2,7.1-6.4,7.1-11.1v-0.9c0-4.7-2.8-9.1-7.1-11.1l-63.1-29.3
	c-1.6-0.7-3.4-1.1-5.2-1.1c-2.4,0-4.6,0.7-6.6,1.9c-3.6,2.3-5.7,6.1-5.7,10.3V-39.4L411.9-39.4z"/>
</svg>
