<?xml version="1.0" encoding="utf-8"?>
<!-- Generator: Adobe Illustrator 19.0.0, SVG Export Plug-In . SVG Version: 6.00 Build 0)  -->
<svg version="1.1" id="Capa_1" xmlns="http://www.w3.org/2000/svg" xmlns:xlink="http://www.w3.org/1999/xlink" x="0px" y="0px"
	 viewBox="148 -147 359 359" style="enable-background:new 148 -147 359 359;" xml:space="preserve">
<path class="bio-icon-svg" d="M411,151.6c-12.8-5-29.3-7.9-47-8.5v-271.6v-12c0-3.6-2.9-6.5-6.5-6.5c-3.6,0-6.5,2.9-6.5,6.5v6.3l-64.7,8.2
	c-3.2,0.4-5.7,3.2-5.7,6.4v38.3L223-61c-2.6,0.9-4.3,3.4-4.3,6.1s1.7,5.2,4.3,6.1l103.4,36.3c0.7,0.2,1.4,0.4,2.2,0.4
	c1.3,0,2.6-0.4,3.8-1.2c1.7-1.2,2.7-3.2,2.7-5.3v-33.6l16,2v193.2c-17.7,0.6-34.2,3.6-47,8.5c-16.3,6.3-25.3,15.5-25.3,25.9
	s9,19.5,25.3,25.9c14.4,5.6,33.4,8.6,53.5,8.6s39.1-3.1,53.5-8.6c16.3-6.3,25.3-15.5,25.3-25.9S427.4,158,411,151.6z"/>
</svg>
