<?xml version="1.0" encoding="utf-8"?>
<!-- Generator: Adobe Illustrator 19.0.0, SVG Export Plug-In . SVG Version: 6.00 Build 0)  -->
<svg version="1.1" id="Capa_1" xmlns="http://www.w3.org/2000/svg" xmlns:xlink="http://www.w3.org/1999/xlink" x="0px" y="0px"
	 viewBox="205 -205.6 474.6 474.6" style="enable-background:new 205 -205.6 474.6 474.6;" xml:space="preserve">
<path class="bio-icon-svg" d="M205-203.5V267h474.6v-470.5H205z"/>
<path d="M329.9,68.1c1.3,4.5,2,14.4,2,29.6c0,13,0.7,22.6,2.1,28.6c1.4,6,4.1,11.2,8.2,15.3c4.1,4.1,9.1,7.1,15,8.9
	c6,1.8,14.5,2.7,25.6,2.7h6.6v-29.7c-8.9,0-14.6-0.6-17.3-1.7c-2.7-1.1-4.6-2.7-6-4.9c-1.3-2.2-1.9-5.9-1.9-11.3
	c0-3.8-0.3-12.6-1-26.3c-0.5-9-1.6-16.1-3.2-21.5c-1.6-5.4-4-9.9-7.1-13.7c-3.1-3.8-7.1-7-11.9-9.8c5.5-3.6,9.6-7,12.3-10.3
	c2.7-3.3,4.9-7.4,6.6-12.5c1.7-5.1,2.8-11.7,3.2-19.8c0.7-14.5,1.1-24.3,1.1-29.5c0-5.1,0.6-8.7,1.9-10.8c1.3-2.1,3.1-3.6,5.7-4.7
	c2.6-1,8.5-1.5,17.6-1.5v-29.5h-6.6c-10.8,0-18.7,0.8-23.7,2.2c-7.4,2.2-13.1,5.2-17,9.1c-3.9,3.8-6.6,8.9-8,15.2
	c-1.5,6.3-2.2,17.4-2.2,33.3c0,9.9-0.4,16.7-1,20.6c-0.8,5.3-2.4,9.6-4.6,13.2c-2.2,3.5-4.8,6-7.9,7.5c-3,1.4-7.5,2.4-13.6,2.7v29.7
	c7.6,0.4,13.2,2,16.9,4.9C325.4,56.8,328.1,61.5,329.9,68.1z"/>
<path d="M417.1,125.8l6.7,14.4c7.4-2.7,13.6-6.3,18.4-10.9s8.1-9.8,9.8-15.6c1.7-5.8,2.6-13.8,2.6-23.8V65.1h-34.8v34.7h16.8
	c-0.1,6.8-1.7,12.3-4.7,16.5C429,120.3,424.1,123.5,417.1,125.8z"/>
<rect x="419.9" y="-31.5" width="34.8" height="34.8"/>
<path d="M516.2,150.8c7.5-2.2,13.2-5.2,17.1-9.1c3.9-3.8,6.5-8.9,7.9-15.3c1.4-6.4,2.2-17.5,2.2-33.5c0-9.8,0.4-16.6,1-20.6
	c0.9-5.3,2.4-9.6,4.7-13.1c2.2-3.5,4.8-6,7.8-7.5c3-1.5,7.5-2.4,13.6-2.7h0V19.4c-7.6-0.5-13.2-2.1-16.9-4.9
	c-3.7-2.8-6.4-7.6-8.3-14.1c-1.3-4.6-1.9-14.5-1.9-29.5c0-13-0.7-22.5-2.2-28.6c-1.4-6.1-4.2-11.2-8.2-15.4c-4.1-4.1-9-7.1-15-8.8
	c-6-1.7-14.5-2.6-25.6-2.6h-6.6V-55c9.3,0,15.3,0.6,18,1.7c2.7,1.1,4.6,2.7,5.6,4.7c1.1,2,1.6,6.2,1.6,12.4
	c0.5,19.6,1.2,32.3,2.1,38.1c1.4,8.4,4.1,15.3,7.9,20.7c2.8,3.8,7.2,7.7,13.4,11.6c-4.7,2.7-8.5,5.8-11.5,9.4c-3,3.6-5.4,8-7.2,13.1
	c-1.8,5.2-3,12.1-3.3,20.6c-0.7,14.2-1.1,23.8-1.1,28.8c-0.1,5-0.7,8.6-2,10.7c-1.3,2.1-3.3,3.7-6,4.9c-2.7,1.1-8.5,1.6-17.4,1.6
	V153h6.6C503.2,153,511.2,152.2,516.2,150.8z"/>
</svg>
