<?xml version="1.0" encoding="utf-8"?>
<!-- Generator: Adobe Illustrator 19.0.0, SVG Export Plug-In . SVG Version: 6.00 Build 0)  -->
<svg version="1.1" id="Capa_1" xmlns="http://www.w3.org/2000/svg" xmlns:xlink="http://www.w3.org/1999/xlink" x="0px" y="0px"
	 viewBox="75 -75.6 214.6 214.6" style="enable-background:new 75 -75.6 214.6 214.6;" xml:space="preserve">
<path class="bio-icon-svg" d="M196.2-47.8c0.7,0,1.2,0,1.5,0l4.4,0c1.4,0,2.7-0.9,3.2-2.2c0.5-1.3,0.2-2.9-0.9-3.8
	c-9.2-8.4-20.7-12.7-34.1-12.7c-26.7,0-54.4,17.7-60,29.6c-6.6,14.1-15,22.6-15.1,22.7c-0.7,0.7-1.1,1.6-1,2.6c0,1,0.5,1.9,1.2,2.5
	L117.4,10c0.8,0.7,1.9,1,3,0.8c1.1-0.2,2-1,2.5-1.9c0.2-0.4,2.2-3.8,8.8-3.2c8.5,0.8,14,4.6,14.1,4.6c0.6,0.4,1.3,0.6,2,0.6
	c0.9,0,1.7-0.3,2.4-0.9l21-19.3c1.2-1.1,1.5-2.8,0.8-4.2l-8.8-17.6C172.2-46.6,190.6-47.8,196.2-47.8z"/>
<path class="bio-icon-svg" d="M99.9,32.8c0.6,0.5,1.4,0.8,2.3,0.8c0.1,0,0.2,0,0.3,0c0.9-0.1,1.8-0.5,2.4-1.3l12.3-14.9
	c1.2-1.5,1-3.6-0.4-4.9L94-7.5c-0.7-0.6-1.6-0.9-2.5-0.9c-0.9,0.1-1.8,0.5-2.4,1.2L75.9,7.7c-0.6,0.7-0.9,1.6-0.9,2.6
	c0.1,0.9,0.5,1.8,1.2,2.4L99.9,32.8z"/>
<path class="bio-icon-svg" d="M288,95.6l-59.9-57.5l-24.4-23.8L254-32l2.5,2.5c0.7,0.7,1.5,1,2.5,1c0,0,0.1,0,0.1,0c1,0,1.9-0.5,2.5-1.2
	l18.5-21.9c0.6-0.7,0.9-1.7,0.8-2.6c-0.1-0.9-0.6-1.8-1.3-2.4l-6.9-5.5c-1.3-1-3.1-1-4.4,0l-21.7,17.4c-0.8,0.6-1.3,1.5-1.3,2.5
	c-0.1,1,0.3,2,1,2.7L249-37L198.7,9.5L180.2-8.6c-1.3-1.3-3.4-1.3-4.7-0.1l-24.1,21c-0.7,0.6-1.1,1.5-1.2,2.5c0,1,0.3,1.9,0.9,2.6
	l18.2,19.4l-2.3,2.1l-8.9-9c-1.3-1.3-3.4-1.4-4.8-0.2L76.8,95.5c-0.4,0.4-0.7,0.8-0.9,1.3c-2.6,5.9,1.1,15.3,9.1,23.3
	c6.1,6.1,13.4,9.9,19.1,9.9c1.9,0,3.7-0.4,5.1-1.3c0.3-0.1,0.5-0.3,0.7-0.6l70.7-70.6c1.4-1.4,1.4-3.6,0-4.9l-8.7-8.8l2.2-2
	l80.7,86.2c0.2,0.2,0.5,0.5,0.8,0.6c1.5,0.8,3.2,1.3,5.1,1.3c5.7,0,13-3.8,19.1-9.9c8-8,11.7-17.4,9.1-23.3
	C288.6,96.4,288.4,96,288,95.6z"/>
</svg>
