<?xml version="1.0" encoding="utf-8"?>
<!-- Generator: Adobe Illustrator 19.2.1, SVG Export Plug-In . SVG Version: 6.00 Build 0)  -->
<svg version="1.1" id="Layer_1" xmlns="http://www.w3.org/2000/svg" xmlns:xlink="http://www.w3.org/1999/xlink" x="0px" y="0px"
	 viewBox="0 0 56.8 38" style="enable-background:new 0 0 56.8 38;" xml:space="preserve">
<style type="text/css">
	.st0{fill:#FFFFFF;}
	.st1{fill:#5AD6FF;}
</style>
<path class="st0 fingers" d="M52.1,13.4c-2.5-2.6-14-6.8-14.5-7c-0.3-0.1-0.6-0.2-1-0.2c-1.3,0-2.6,0.9-3.1,2.2c-0.1,0.3-0.2,0.8-0.2,1.2
	c-0.3-0.1-0.6-0.1-1-0.1c-1.5,0-2.9,1-3.4,2.4c-0.3,0.7-0.3,1.4-0.1,2.2L15.7,9.3C15.2,9.1,14.8,9,14.3,9c-1.5,0-2.7,0.9-3.2,2.2
	c-0.7,1.9,0.3,3.8,2.2,4.5l1,0.4c-1.2,0.3-2.1,1.1-2.5,2.2c-0.4,1-0.3,2,0.2,2.9c0.5,0.8,1.2,1.5,2.2,1.8l15.6,5.3
	c0.1,0.5,0.2,1.2,0.7,2.2c1.1,2.7,5,5.4,9.7,5.4c0.9,0,1.9-0.1,2.7-0.3c6.2-1.5,9.7-4.6,11.8-10.4C57,19.2,54.6,16.2,52.1,13.4z
	 M53.3,24.9c-1.9,5.3-5,8-10.7,9.4c-0.8,0.2-1.6,0.3-2.4,0.3c-4,0-7.4-2.3-8.3-4.5c-0.2-0.4-0.3-0.8-0.4-1l5.1,1.7l0,0
	c0.4,0.1,0.8-0.1,1-0.5c0.1-0.4-0.1-0.8-0.5-1l-22.4-7.6c-0.6-0.2-1.1-0.6-1.4-1.1C13,20,13,19.4,13.2,18.9c0.4-1.1,1.6-1.6,2.9-1.1
	l13.7,4.4c0.4,0.1,0.8-0.1,1-0.5c0.1-0.4-0.1-0.8-0.4-1l-16.6-6.5c-1.1-0.4-1.6-1.5-1.3-2.6c0.3-0.8,0.9-1.2,1.8-1.2
	c0.3,0,0.5,0,0.8,0.1l16,5.8l0,0c0.4,0.1,0.8-0.1,1-0.5c0.1-0.4-0.1-0.8-0.5-1c-0.5-0.2-0.9-0.6-1.2-1.1c-0.2-0.5-0.3-1.1-0.1-1.6
	c0.3-0.8,1.1-1.4,1.9-1.4c0.2,0,0.5,0,0.7,0.1l3.1,1.1c0.4,0.1,0.8-0.1,1-0.5c0.1-0.4-0.1-0.8-0.5-1l-1.9-0.7c0-0.3,0-0.9,0.1-1.3
	C35,7.6,36,7,36.7,7.3C40,8.5,48.8,12,50.6,13.9C53.4,17.1,55.2,19.6,53.3,24.9z"/>
<path class="st1" d="M8.1,30.4c-0.6,0.1-1.2,0.3-1.8,0.4c-2.1-9-1.8-18.5,0.9-27.4C7.4,2.9,7.1,2.2,6.6,2C6.1,1.9,5.4,2.3,5.2,2.8
	c-2.8,9.3-3.1,19.1-1,28.5c-0.8,0.2-1.5,0.3-2.3,0.5c-0.2,0.1-0.5,0.2-0.5,0.6c0,0.4,0.1,0.6,0.4,0.8C3.2,34,4.4,35,5.8,35.6
	c0.4,0.2,0.9,0.1,1-0.3c0.6-1.4,1.3-2.7,2.1-4c0.2-0.3,0.2-0.5,0-0.7C8.6,30.4,8.4,30.4,8.1,30.4z"/>
</svg>
