<?xml version="1.0" encoding="utf-8"?>
<!-- Generator: Adobe Illustrator 19.2.1, SVG Export Plug-In . SVG Version: 6.00 Build 0)  -->
<svg version="1.1" id="Layer_1" xmlns="http://www.w3.org/2000/svg" xmlns:xlink="http://www.w3.org/1999/xlink" x="0px" y="0px"
	 viewBox="0 0 52.6 34.1" enable-background="new 0 0 52.6 34.1" xml:space="preserve">
<path fill="#FFFFFF" d="M49.1,11.4c-2.5-2.6-14-6.8-14.5-7c-0.3-0.1-0.6-0.2-1-0.2c-1.3,0-2.6,0.9-3.1,2.2c-0.1,0.3-0.2,0.8-0.2,1.2
	c-0.3-0.1-0.6-0.1-1-0.1c-1.5,0-2.9,1-3.4,2.4c-0.3,0.7-0.3,1.4-0.1,2.2L12.7,7.3C12.2,7.1,11.8,7,11.3,7C9.8,7,8.6,7.9,8.1,9.2
	c-0.7,1.9,0.3,3.8,2.2,4.5l1,0.4c-1.2,0.3-2.1,1.1-2.5,2.2c-0.4,1-0.3,2,0.2,2.9c0.5,0.8,1.2,1.5,2.2,1.8l15.6,5.3
	c0.1,0.5,0.2,1.2,0.7,2.2c1.1,2.7,5,5.4,9.7,5.4c0.9,0,1.9-0.1,2.7-0.3c6.2-1.5,9.7-4.6,11.8-10.4C54,17.3,51.6,14.2,49.1,11.4z
	 M50.3,22.9c-1.9,5.3-5,8-10.7,9.4c-0.8,0.2-1.6,0.3-2.4,0.3c-4,0-7.4-2.3-8.3-4.5c-0.2-0.4-0.3-0.8-0.4-1l5.1,1.7l0,0
	c0.4,0.1,0.8-0.1,1-0.5c0.1-0.4-0.1-0.8-0.5-1l-22.4-7.6c-0.6-0.2-1.1-0.6-1.4-1.1c-0.3-0.5-0.3-1.1-0.1-1.6
	c0.4-1.1,1.6-1.6,2.9-1.1l13.7,4.4c0.4,0.1,0.8-0.1,1-0.5c0.1-0.4-0.1-0.8-0.4-1l-16.6-6.5c-1.1-0.4-1.6-1.5-1.3-2.6
	c0.3-0.8,0.9-1.2,1.8-1.2c0.3,0,0.5,0,0.8,0.1l16,5.8c0,0,0,0,0,0c0.4,0.1,0.8-0.1,1-0.5c0.1-0.4-0.1-0.8-0.5-1
	c-0.5-0.2-0.9-0.6-1.2-1.1c-0.2-0.5-0.3-1.1-0.1-1.6c0.3-0.8,1.1-1.4,1.9-1.4c0.2,0,0.5,0,0.7,0.1l3.1,1.1c0.4,0.1,0.8-0.1,1-0.5
	c0.1-0.4-0.1-0.8-0.5-1l-1.9-0.7c0-0.3,0-0.9,0.1-1.3c0.3-0.8,1.3-1.4,2-1.1c3.3,1.2,12.1,4.7,13.9,6.6
	C50.4,15.1,52.2,17.6,50.3,22.9z"/>
<path fill="#FFFFFF" d="M6.6,28.4c-0.6,0.1-1.2,0.3-1.8,0.4c-2.1-9-1.8-18.5,0.9-27.4C6,0.9,5.6,0.2,5.2,0C4.7-0.1,4,0.3,3.8,0.8
	c-2.8,9.3-3.1,19.1-1,28.5c-0.8,0.2-1.5,0.3-2.3,0.5C0.3,29.9,0,30,0,30.4c0,0.4,0.1,0.6,0.4,0.8c1.3,0.9,2.6,1.8,3.9,2.5
	c0.4,0.2,0.9,0.1,1-0.3c0.6-1.4,1.3-2.7,2.1-4c0.2-0.3,0.2-0.5,0-0.7C7.2,28.4,6.9,28.4,6.6,28.4z"/>
</svg>
