<?xml version="1.0" encoding="utf-8"?>
<!-- Generator: Adobe Illustrator 19.0.0, SVG Export Plug-In . SVG Version: 6.00 Build 0)  -->
<svg version="1.1" id="Layer_1" xmlns="http://www.w3.org/2000/svg" xmlns:xlink="http://www.w3.org/1999/xlink" x="0px" y="0px"
	 viewBox="0 0 50 50" style="enable-background:new 0 0 50 50;" xml:space="preserve">
<style type="text/css">
	.st0{fill:#FFFFFF;}
</style>
<g id="XMLID_1_">
	<path id="XMLID_38_" class="st0" d="M25,2c12.7,0,23,10.3,23,23S37.7,48,25,48S2,37.7,2,25S12.3,2,25,2 M25,0C11.2,0,0,11.2,0,25
		s11.2,25,25,25s25-11.2,25-25S38.8,0,25,0L25,0z"/>
</g>
<g id="XMLID_2_">
	<path id="XMLID_34_" class="st0" d="M25,5.5c10.8,0,19.5,8.7,19.5,19.5S35.8,44.5,25,44.5S5.5,35.8,5.5,25S14.2,5.5,25,5.5 M25,3.5
		C13.1,3.5,3.5,13.1,3.5,25S13.1,46.5,25,46.5S46.5,36.9,46.5,25S36.9,3.5,25,3.5L25,3.5z"/>
</g>
<g id="XMLID_4_">
	<g id="XMLID_5_">
		<path id="XMLID_30_" class="st0" d="M29,12.5c0,5.7,0,11.4,0,17.2c1.3,0,2.6,0,3.9,0c-2.6,2.6-5.3,5.2-7.9,7.8
			c-2.6-2.6-5.3-5.2-8-7.8c1.3,0,2.6,0,3.9,0c0-5.7,0-11.4,0-17.2c1.3,0,2.7,0,4,0S27.7,12.5,29,12.5 M29,10.5h-4h-4
			c-1.1,0-2,0.9-2,2v15.2H17c-0.8,0-1.5,0.5-1.8,1.2c-0.3,0.7-0.1,1.6,0.4,2.2c1.3,1.3,2.7,2.6,4,3.9c1.3,1.3,2.7,2.6,4,3.9
			c0.4,0.4,0.9,0.6,1.4,0.6c0.5,0,1-0.2,1.4-0.6c1.3-1.3,2.6-2.6,4-3.9c1.3-1.3,2.7-2.6,4-3.9c0.6-0.6,0.7-1.4,0.4-2.2
			c-0.3-0.7-1-1.2-1.8-1.2H31V12.5C31,11.4,30.1,10.5,29,10.5L29,10.5z"/>
	</g>
</g>
</svg>
