<?xml version="1.0" encoding="utf-8"?>
<!-- Generator: Adobe Illustrator 19.0.0, SVG Export Plug-In . SVG Version: 6.00 Build 0)  -->
<svg version="1.1" id="Layer_1" xmlns="http://www.w3.org/2000/svg" xmlns:xlink="http://www.w3.org/1999/xlink" x="0px" y="0px"
	 viewBox="-23.9 -16.1 64 64" style="enable-background:new -23.9 -16.1 64 64;" xml:space="preserve">
<style type="text/css">
	.st0{fill:#141416;}
	.st1{fill:#47FF78;}
	.st2{fill:none;stroke:#FFFFFF;stroke-width:3;stroke-linecap:round;stroke-linejoin:round;stroke-miterlimit:10;}
</style>
<rect x="-25.3" y="-17.5" class="st0" width="66.9" height="66.9"/>
<g id="XMLID_27_">
	<path class="st1" d="M8.4-9.9c14,0,25.4,11.4,25.4,25.4S22.4,40.9,8.4,40.9S-17,29.5-17,15.5S-5.6-9.9,8.4-9.9 M8.4-12.9
		C-7.3-12.9-20-0.2-20,15.5S-7.3,43.9,8.4,43.9s28.4-12.7,28.4-28.4S24.1-12.9,8.4-12.9L8.4-12.9z"/>
</g>
<g id="XMLID_35_">
	<line id="XMLID_28_" class="st2" x1="5.9" y1="25.5" x2="11.5" y2="5.9"/>
	<path id="XMLID_33_" class="st2" d="M-1.8,8.6c-2.2,2.2-4.7,4.7-6.9,6.9l6.9,6.2"/>
	<path id="XMLID_34_" class="st2" d="M18.6,22.1c2.2-2.2,4.7-4.7,6.9-6.9l-6.9-6.2"/>
</g>
</svg>
